0
SECTION
2
HEADER
9
$INSUNITS
70
4
9
$ACADVER
1
AC1014
9
$HANDSEED
5
FFFF
0
ENDSEC
0
SECTION
2
TABLES
0
TABLE
2
VPORT
5
8
100
AcDbSymbolTable
0
ENDTAB
0
TABLE
2
LTYPE
5
5
100
AcDbSymbolTable
0
LTYPE
5
14
100
AcDbSymbolTableRecord
100
AcDbLinetypeTableRecord
2
BYBLOCK
70
0
0
LTYPE
5
15
100
AcDbSymbolTableRecord
100
AcDbLinetypeTableRecord
2
BYLAYER
70
0
0
ENDTAB
0
TABLE
2
LAYER
5
2
100
AcDbSymbolTable
70
2
0
LAYER
5
50
100
AcDbSymbolTableRecord
100
AcDbLayerTableRecord
2
0
70
0
6
CONTINUOUS
0
ENDTAB
0
TABLE
2
STYLE
5
3
100
AcDbSymbolTable
70
1
0
STYLE
5
11
100
AcDbSymbolTableRecord
100
AcDbTextStyleTableRecord
2
STANDARD
70
0
0
ENDTAB
0
TABLE
2
VIEW
5
6
100
AcDbSymbolTable
70
0
0
ENDTAB
0
TABLE
2
UCS
5
7
100
AcDbSymbolTable
70
0
0
ENDTAB
0
TABLE
2
APPID
5
9
100
AcDbSymbolTable
70
2
0
APPID
5
12
100
AcDbSymbolTableRecord
100
AcDbRegAppTableRecord
2
ACAD
70
0
0
ENDTAB
0
TABLE
2
DIMSTYLE
5
A
100
AcDbSymbolTable
70
1
0
ENDTAB
0
TABLE
2
BLOCK_RECORD
5
1
100
AcDbSymbolTable
70
1
0
BLOCK_RECORD
5
1F
100
AcDbSymbolTableRecord
100
AcDbBlockTableRecord
2
*MODEL_SPACE
0
BLOCK_RECORD
5
1B
100
AcDbSymbolTableRecord
100
AcDbBlockTableRecord
2
*PAPER_SPACE
0
ENDTAB
0
ENDSEC
0
SECTION
2
BLOCKS
0
BLOCK
5
20
100
AcDbEntity
100
AcDbBlockBegin
2
*MODEL_SPACE
0
ENDBLK
5
21
100
AcDbEntity
100
AcDbBlockEnd
0
BLOCK
5
1C
100
AcDbEntity
100
AcDbBlockBegin
2
*PAPER_SPACE
0
ENDBLK
5
1D
100
AcDbEntity
100
AcDbBlockEnd
0
ENDSEC
0
SECTION
2
ENTITIES
0
ELLIPSE
5
100
100
AcDbEntity
8
0
100
AcDbEllipse
10
-236.35999999999996
20
82.620604748657314
30
0
11
1.7245012624429893e-15
21
1.6517003101960017
31
0.0
40
0.99897056979071464
41
0
42
6.2831853071795862
0
CIRCLE
5
101
100
AcDbEntity
8
0
100
AcDbCircle
10
-61.437024999999885
20
108.39009885143197
30
-2.2204460492503131e-15
40
0.99999999999999634
210
0
220
-0
230
1
0
CIRCLE
5
102
100
AcDbEntity
8
0
100
AcDbCircle
10
-238.89297499999998
20
108.39009885143207
30
0
40
1.000000000000014
210
-7.694129987702206e-33
220
6.9388939039072299e-18
230
1
0
CIRCLE
5
103
100
AcDbEntity
8
0
100
AcDbCircle
10
-150.16499999999996
20
43.172064217295599
30
0
40
0.99999999999999634
210
9.5246134997447133e-36
220
-9.3919940341111074e-67
230
1
0
LINE
5
104
100
AcDbEntity
8
0
100
AcDbLine
10
-65.237024985098756
20
118.33997322100059
30
-2.2204460492503131e-15
11
-65.23702498509877
21
121.29778167437166
31
-2.2204460492503131e-15
0
SPLINE
5
105
100
AcDbEntity
8
0
100
AcDbSpline
70
0
71
3
72
20
73
16
74
0
42
0.000000001
43
0.0000000001
44
0.0000000001
40
-0.32556110955297729
40
-0.32556110955297729
40
-0.32556110955297729
40
-0.32556110955297729
40
-0.28531762929786375
40
-0.28531762929786375
40
-0.28531762929786375
40
-0.24509723213808837
40
-0.24509723213808837
40
-0.24509723213808837
40
-0.16639826483500639
40
-0.16639826483500639
40
-0.16639826483500639
40
-0.084008059146985448
40
-0.084008059146985448
40
-0.084008059146985448
40
0
40
0
40
0
40
0
10
-65.23702498509877
20
121.29778167437165
30
-2.2204460492503131e-15
10
-65.23702498509877
20
121.46092980059703
30
0
10
-65.254957002766133
20
121.62309758803107
30
0
10
-65.28908094013866
20
121.78160339413157
30
-2.2204460492503131e-15
10
-65.323185213905802
20
121.94001786271757
30
-2.2204460492503131e-15
10
-65.373375854882354
20
122.09441851056462
30
-2.2204460492503131e-15
10
-65.437845161555089
20
122.24234502243492
30
-2.2204460492503131e-15
10
-65.563991798987217
20
122.53179178435258
30
0
10
-65.744971971645157
20
122.79722584550512
30
-2.2204460492503131e-15
10
-65.969843614365246
20
123.01971011735421
30
-2.2204460492503131e-15
10
-66.204566703395585
20
123.25194124671052
30
0
10
-66.46505978583491
20
123.41699944331134
30
-2.2204460492503131e-15
10
-66.742755476134462
20
123.52845132883077
30
-2.2204460492503131e-15
10
-67.026336586008114
20
123.64226530037286
30
-2.2204460492503131e-15
10
-67.331039669725456
20
123.7016595261091
30
-2.2204460492503131e-15
10
-67.637024999999895
20
123.7016595261091
30
-2.2204460492503131e-15
0
LINE
5
106
100
AcDbEntity
8
0
100
AcDbLine
10
-67.63702499999988
20
123.70165952610907
30
-2.2204460492503131e-15
11
-232.6929749999999
21
123.70165952610925
31
-2.2204460492503131e-15
0
SPLINE
5
107
100
AcDbEntity
8
0
100
AcDbSpline
70
0
71
3
72
20
73
16
74
0
42
0.000000001
43
0.0000000001
44
0.0000000001
40
-0.32270660571529625
40
-0.32270660571529625
40
-0.32270660571529625
40
-0.32270660571529625
40
-0.2835054173303157
40
-0.2835054173303157
40
-0.2835054173303157
40
-0.24434138170748881
40
-0.24434138170748881
40
-0.24434138170748881
40
-0.16660912505585634
40
-0.16660912505585634
40
-0.16660912505585634
40
-0.084528211640931245
40
-0.084528211640931245
40
-0.084528211640931245
40
0
40
0
40
0
40
0
10
-232.6929749999999
20
123.70165952610925
30
-2.2204460492503131e-15
10
-232.85429331013975
20
123.70165952610925
30
-2.2204460492503131e-15
10
-233.01463077645818
20
123.68403257050704
30
0
10
-233.17139711088362
20
123.65047733594031
30
-2.2204460492503131e-15
10
-233.32801450118797
20
123.61695398229331
30
-2.2204460492503131e-15
10
-233.48067901545983
20
123.56762617348684
30
-2.2204460492503131e-15
10
-233.62702315488093
20
123.50428875994228
30
-2.2204460492503131e-15
10
-233.91748505504108
20
123.37857750452655
30
-2.2204460492503131e-15
10
-234.18379029147061
20
123.197536539439
30
0
10
-234.40702550765334
20
122.97256506458959
30
-2.2204460492503131e-15
10
-234.64206106092865
20
122.73570147305338
30
-2.2204460492503131e-15
10
-234.80739990895262
20
122.47373557754133
30
-2.2204460492503131e-15
10
-234.91858468923479
20
122.19715795772373
30
-2.2204460492503131e-15
10
-235.03323298973908
20
121.91196466068132
30
-2.2204460492503131e-15
10
-235.09297501490107
20
121.60550418540721
30
2.2204460492503131e-15
10
-235.09297501490107
20
121.29778167437175
30
0
0
LINE
5
108
100
AcDbEntity
8
0
100
AcDbLine
10
-235.09297501490107
20
121.29778167437175
30
-1.635916092382589e-30
11
-235.0929750149011
21
118.3900988514321
31
-2.2204460492503131e-15
0
ARC
5
109
100
AcDbEntity
8
0
100
AcDbCircle
10
-239.89297501490111
20
118.39009885143211
30
-2.2204460492503131e-15
40
4.8000000000000078
210
-8.6301403259552648e-19
220
-8.6736175091315816e-20
230
1
100
AcDbArc
50
275.73917056307477
51
360
0
ARC
5
110
100
AcDbEntity
8
0
100
AcDbCircle
10
-238.89297499999995
20
108.44022448186358
30
0
40
5.199999999999946
210
-4.2700886198796989e-17
220
4.248684468162641e-16
230
1
100
AcDbArc
50
95.739170563073898
51
180
0
LINE
5
111
100
AcDbEntity
8
0
100
AcDbLine
10
-244.09297499999991
20
108.44022448186358
30
0
11
-244.09297499999991
21
108.06079661686361
31
0
0
SPLINE
5
112
100
AcDbEntity
8
0
100
AcDbSpline
70
0
71
3
72
14
73
10
74
0
42
0.000000001
43
0.0000000001
44
0.0000000001
40
0
40
0
40
0
40
0
40
0.19532223669346579
40
0.19532223669346579
40
0.19532223669346579
40
0.33718467446646572
40
0.33718467446646572
40
0.33718467446646572
40
0.47904711223946272
40
0.47904711223946272
40
0.47904711223946272
40
0.47904711223946272
10
-246.12407019749992
20
104.13993367680919
30
0
10
-245.61351571801995
20
104.50048612961957
30
0
10
-245.17826632916578
20
104.95731414735074
30
0
10
-244.84282091390921
20
105.48470425071635
30
0
10
-244.59918708524918
20
105.86774740538905
30
0
10
-244.41112001770261
20
106.2834234375719
30
0
10
-244.2842474308527
20
106.71929365623251
30
-2.2204460492503131e-15
10
-244.15737484400279
20
107.15516387489305
30
0
10
-244.09297499999985
20
107.60683681599005
30
0
10
-244.09297499999991
20
108.06079661686361
30
0
0
SPLINE
5
113
100
AcDbEntity
8
0
100
AcDbSpline
70
0
71
3
72
14
73
10
74
0
42
0.000000001
43
0.0000000001
44
0.0000000001
40
-0.14906077463267545
40
-0.14906077463267545
40
-0.14906077463267545
40
-0.14906077463267545
40
-0.13523380437587884
40
-0.13523380437587884
40
-0.13523380437587884
40
-0.08473922250518226
40
-0.08473922250518226
40
-0.08473922250518226
40
0
40
0
40
0
40
0
10
-246.12407019749998
20
104.13993367680918
30
0
10
-246.21822281953413
20
104.07344330178098
30
0
10
-246.30780790503482
20
104.00045796237733
30
0
10
-246.39189479940501
20
103.92151181413041
30
0
10
-246.69896921324118
20
103.63321073726081
30
0
10
-246.85505007345017
20
103.33719117725869
30
0
10
-246.93001132299918
20
103.16950982319113
30
0
10
-247.05581626619465
20
102.88809584796616
30
0
10
-247.12698777973802
20
102.58323287651599
30
0
10
-247.13836213843959
20
102.27501607320731
30
0
0
SPLINE
5
114
100
AcDbEntity
8
0
100
AcDbSpline
70
0
71
3
72
11
73
7
74
0
42
0.000000001
43
0.0000000001
44
0.0000000001
40
-0.0081437799632497754
40
-0.0081437799632497754
40
-0.0081437799632497754
40
-0.0081437799632497754
40
-0.004071888373316979
40
-0.004071888373316979
40
-0.004071888373316979
40
0
40
0
40
0
40
0
10
-247.13836213843962
20
102.27501607320704
30
-2.2204460492503131e-15
10
-247.13890804146448
20
102.26022346030838
30
0
10
-247.13931750787725
20
102.24542602504772
30
0
10
-247.13959050131706
20
102.23062607178498
30
0
10
-247.13986349454115
20
102.21582613021215
30
0
10
-247.14000001490106
20
102.20102367643192
30
0
10
-247.14000001490106
20
102.18622101459582
30
0
0
LINE
5
115
100
AcDbEntity
8
0
100
AcDbLine
10
-247.14000001490106
20
102.18622101459582
30
0
11
-247.14000001490109
21
46.37330082143027
31
0
0
SPLINE
5
116
100
AcDbEntity
8
0
100
AcDbSpline
70
0
71
3
72
20
73
16
74
0
42
0.000000001
43
0.0000000001
44
0.0000000001
40
-0.32459146273039896
40
-0.32459146273039896
40
-0.32459146273039896
40
-0.32459146273039896
40
-0.28468998071898505
40
-0.28468998071898505
40
-0.28468998071898505
40
-0.24481645113380979
40
-0.24481645113380979
40
-0.24481645113380979
40
-0.16641213766475649
40
-0.16641213766475649
40
-0.16641213766475649
40
-0.084135400324142406
40
-0.084135400324142406
40
-0.084135400324142406
40
0
40
0
40
0
40
0
10
-247.14000001490109
20
46.37330082143027
30
0
10
-247.14000001490109
20
46.210868414616222
30
0
10
-247.12218196592664
20
46.049416595538148
30
0
10
-247.0882712598152
20
45.891593888317445
30
2.2204460492503131e-15
10
-247.05438439608253
20
45.733882145130956
30
0
10
-247.00451671529581
20
45.580161679826134
30
0
10
-246.94047111423777
20
45.432859064540992
30
2.2204460492503131e-15
10
-246.81453665511384
20
45.143214266506305
30
-2.2204460492503131e-15
10
-246.63362695440426
20
44.87761970109166
30
0
10
-246.40883544228188
20
44.65499416045779
30
0
10
-246.1736355131992
20
44.422060492835236
30
0
10
-245.9128287367044
20
44.256942014979401
30
-2.2204460492503131e-15
10
-245.63552365573545
20
44.145582791493332
30
0
10
-245.35154734339483
20
44.031544557789893
30
0
10
-245.04641094231437
20
43.972064217295674
30
0
10
-244.73999999999992
20
43.972064217295674
30
0
0
LINE
5
117
100
AcDbEntity
8
0
100
AcDbLine
10
-244.73999999999995
20
43.972064217295674
30
0
11
-155.18310775755563
21
43.97206421729561
31
-4.9303806576313238e-31
0
LINE
5
118
100
AcDbEntity
8
0
100
AcDbLine
10
-155.18310775755563
20
43.97206421729561
30
-4.9303806576313238e-31
11
-153.2961804618287
21
43.627560002548321
31
-2.2204460492503131e-15
0
ARC
5
119
100
AcDbEntity
8
0
100
AcDbCircle
10
-153.43986470345013
20
42.840568999607569
30
0
40
0.80000000000000182
210
4.9877211636020016e-18
220
4.8239906927602629e-18
230
1
100
AcDbArc
50
44.043979840015851
51
79.653229384406487
0
ARC
5
120
100
AcDbEntity
8
0
100
AcDbCircle
10
-155.16500000000096
20
41.172064217294704
30
0
40
3.2000000000013347
210
6.7268237165189928e-18
220
-3.8646026249769535e-18
230
1
100
AcDbArc
50
33.557309761923776
51
44.043979840015162
0
ARC
5
121
100
AcDbEntity
8
0
100
AcDbCircle
10
-150.16499999999996
20
44.488689007650962
30
-2.2204460492503131e-15
40
2.7999999999999843
210
6.5754280327502214e-16
220
4.3616455241234142e-16
230
1
100
AcDbArc
50
213.55730976192058
51
326.44269023807897
0
ARC
5
122
100
AcDbEntity
8
0
100
AcDbCircle
10
-145.16500000000082
20
41.172064217296281
30
0
40
3.1999999999988877
210
4.9877211636018213e-18
220
-4.8239906927604285e-18
230
1
100
AcDbArc
50
135.95602015998145
51
146.44269023808189
0
ARC
5
123
100
AcDbEntity
8
0
100
AcDbCircle
10
-146.89013529654977
20
42.840568999607555
30
0
40
0.8000000000000016
210
0
220
0
230
1
100
AcDbArc
50
100.34677061559161
51
135.95602015998199
0
LINE
5
124
100
AcDbEntity
8
0
100
AcDbLine
10
-147.03381953817117
20
43.6275600025483
30
0
11
-145.14689224244427
21
43.972064217295603
31
-2.2204460492503131e-15
0
LINE
5
125
100
AcDbEntity
8
0
100
AcDbLine
10
-145.14689224244427
20
43.972064217295603
30
-2.2204460492503131e-15
11
-55.589999999999975
21
43.972064217295525
31
-2.2204460492503131e-15
0
SPLINE
5
126
100
AcDbEntity
8
0
100
AcDbSpline
70
0
71
3
72
20
73
16
74
0
42
0.000000001
43
0.0000000001
44
0.0000000001
40
-0.32371859252228663
40
-0.32371859252228663
40
-0.32371859252228663
40
-0.32371859252228663
40
-0.2841425206725019
40
-0.2841425206725019
40
-0.2841425206725019
40
-0.24459890918101662
40
-0.24459890918101662
40
-0.24459890918101662
40
-0.16648859334326521
40
-0.16648859334326521
40
-0.16648859334326521
40
-0.084301293459766558
40
-0.084301293459766558
40
-0.084301293459766558
40
0
40
0
40
0
40
0
10
-55.589999999999975
20
43.972064217295525
30
0
10
-55.428151402259054
20
43.972064217295525
30
0
10
-55.267283546038833
20
43.989784916548331
30
2.2204460492503131e-15
10
-55.110015807522316
20
44.023514153801116
30
-2.2204460492503131e-15
10
-54.952877447361899
20
44.057215643257031
30
0
10
-54.799710914456298
20
44.106807993429264
30
0
10
-54.652913168984952
20
44.170492417574167
30
-2.2204460492503131e-15
10
-54.362944250351759
20
44.296287970794538
30
-2.2204460492503131e-15
10
-54.097071537791521
20
44.477217140962694
30
0
10
-53.874206248506525
20
44.702040597200067
30
0
10
-53.640396629272004
20
44.937904543831202
30
0
10
-53.475181807045601
20
45.199169874109266
30
0
10
-53.363895621791428
20
45.476148473852014
30
0
10
-53.249591261093514
20
45.760638967423127
30
0
10
-53.189999985098815
20
46.066335833361912
30
-2.2204460492503131e-15
10
-53.189999985098815
20
46.373300821430128
30
0
0
LINE
5
127
100
AcDbEntity
8
0
100
AcDbLine
10
-53.189999985098822
20
46.373300821430128
30
1.0988810363097046e-30
11
-53.189999985098744
21
102.18622101459572
31
0
0
SPLINE
5
128
100
AcDbEntity
8
0
100
AcDbSpline
70
0
71
3
72
11
73
7
74
0
42
0.000000001
43
0.0000000001
44
0.0000000001
40
-0.0081437799643974667
40
-0.0081437799643974667
40
-0.0081437799643974667
40
-0.0081437799643974667
40
-0.0040718915898656496
40
-0.0040718915898656496
40
-0.0040718915898656496
40
0
40
0
40
0
40
0
10
-53.189999985098737
20
102.18622101459572
30
0
10
-53.189999985098737
20
102.20102367643145
30
0
10
-53.190136505458625
20
102.21582613021135
30
0
10
-53.190409498682769
20
102.23062607178436
30
0
10
-53.190682492122463
20
102.24542602504371
30
0
10
-53.191091958535239
20
102.26022346030626
30
0
10
-53.191637861560196
20
102.27501607320721
30
0
0
SPLINE
5
129
100
AcDbEntity
8
0
100
AcDbSpline
70
0
71
3
72
14
73
10
74
0
42
0.000000001
43
0.0000000001
44
0.0000000001
40
-0.20985622489756184
40
-0.20985622489756184
40
-0.20985622489756184
40
-0.20985622489756184
40
-0.17419424864824937
40
-0.17419424864824937
40
-0.17419424864824937
40
-0.13524977438771363
40
-0.13524977438771363
40
-0.13524977438771363
40
-0.11813097316565586
40
-0.11813097316565586
40
-0.11813097316565586
40
-0.11813097316565586
10
-53.191637861560189
20
102.27501607320717
30
0
10
-53.202502971488201
20
102.56943350257414
30
-2.2204460492503131e-15
10
-53.271576296131272
20
102.85784977259058
30
0
10
-53.387788611994232
20
103.12542237113612
30
0
10
-53.514697662469786
20
103.41762362504394
30
0
10
-53.697719453141552
20
103.68504129771821
30
0
10
-53.924657509233462
20
103.9088978151011
30
0
10
-54.024383078990169
20
104.00726923470432
30
0
10
-54.124237665630361
20
104.08897139259034
30
0
10
-54.219419063152557
20
104.15668085503768
30
0
0
SPLINE
5
130
100
AcDbEntity
8
0
100
AcDbSpline
70
0
71
3
72
14
73
10
74
0
42
0.000000001
43
0.0000000001
44
0.0000000001
40
0
40
0
40
0
40
0
40
0.1953222366934651
40
0.1953222366934651
40
0.1953222366934651
40
0.3363192508945288
40
0.3363192508945288
40
0.3363192508945288
40
0.477316265095593
40
0.477316265095593
40
0.477316265095593
40
0.477316265095593
10
-56.237024999999889
20
108.06798284763973
30
0
10
-56.237024999999889
20
107.44295169022064
30
0
10
-56.114942516329684
20
106.82389617133475
30
0
10
-55.877649205921927
20
106.24566106985755
30
0
10
-55.706354586201357
20
105.82825123370824
30
-2.2204460492503131e-15
10
-55.477058827348785
20
105.43707055492905
30
0
10
-55.196540635467301
20
105.08368356863365
30
0
10
-54.916022443585803
20
104.73029658233826
30
-2.2204460492503131e-15
10
-54.587073664882908
20
104.41822035852783
30
0
10
-54.219419063152529
20
104.15668085503765
30
0
0
LINE
5
131
100
AcDbEntity
8
0
100
AcDbLine
10
-56.237024999999889
20
108.06798284763973
30
0
11
-56.237024999999875
21
108.39009885143199
31
2.1684043449710089e-18
0
ARC
5
132
100
AcDbEntity
8
0
100
AcDbCircle
10
-61.437024999999885
20
108.39009885143197
30
-2.2204460492503131e-15
40
5.2000000000000046
210
-4.2742585646063117e-16
220
-1.4601170066545215e-30
230
1
100
AcDbArc
50
0
51
84.260829436925775
0
ARC
5
133
100
AcDbEntity
8
0
100
AcDbCircle
10
-60.437024985098738
20
118.33997322100061
30
0
40
4.8000000000000131
210
-4.6259292692714731e-16
220
6.9388939039055182e-18
230
1
100
AcDbArc
50
180
51
264.26082943692592
0
ENDSEC
0
SECTION
2
OBJECTS
0
DICTIONARY
5
C
100
AcDbDictionary
3
ACAD_GROUP
350
D
3
ACAD_MLINESTYLE
350
17
0
DICTIONARY
5
D
100
AcDbDictionary
0
DICTIONARY
5
1A
330
C
100
AcDbDictionary
0
DICTIONARY
5
17
100
AcDbDictionary
0
ENDSEC
0
EOF
