0
SECTION
2
HEADER
9
$INSUNITS
70
4
9
$ACADVER
1
AC1014
9
$HANDSEED
5
FFFF
0
ENDSEC
0
SECTION
2
TABLES
0
TABLE
2
VPORT
5
8
100
AcDbSymbolTable
0
ENDTAB
0
TABLE
2
LTYPE
5
5
100
AcDbSymbolTable
0
LTYPE
5
14
100
AcDbSymbolTableRecord
100
AcDbLinetypeTableRecord
2
BYBLOCK
70
0
0
LTYPE
5
15
100
AcDbSymbolTableRecord
100
AcDbLinetypeTableRecord
2
BYLAYER
70
0
0
ENDTAB
0
TABLE
2
LAYER
5
2
100
AcDbSymbolTable
70
2
0
LAYER
5
50
100
AcDbSymbolTableRecord
100
AcDbLayerTableRecord
2
0
70
0
6
CONTINUOUS
0
ENDTAB
0
TABLE
2
STYLE
5
3
100
AcDbSymbolTable
70
1
0
STYLE
5
11
100
AcDbSymbolTableRecord
100
AcDbTextStyleTableRecord
2
STANDARD
70
0
0
ENDTAB
0
TABLE
2
VIEW
5
6
100
AcDbSymbolTable
70
0
0
ENDTAB
0
TABLE
2
UCS
5
7
100
AcDbSymbolTable
70
0
0
ENDTAB
0
TABLE
2
APPID
5
9
100
AcDbSymbolTable
70
2
0
APPID
5
12
100
AcDbSymbolTableRecord
100
AcDbRegAppTableRecord
2
ACAD
70
0
0
ENDTAB
0
TABLE
2
DIMSTYLE
5
A
100
AcDbSymbolTable
70
1
0
ENDTAB
0
TABLE
2
BLOCK_RECORD
5
1
100
AcDbSymbolTable
70
1
0
BLOCK_RECORD
5
1F
100
AcDbSymbolTableRecord
100
AcDbBlockTableRecord
2
*MODEL_SPACE
0
BLOCK_RECORD
5
1B
100
AcDbSymbolTableRecord
100
AcDbBlockTableRecord
2
*PAPER_SPACE
0
ENDTAB
0
ENDSEC
0
SECTION
2
BLOCKS
0
BLOCK
5
20
100
AcDbEntity
100
AcDbBlockBegin
2
*MODEL_SPACE
0
ENDBLK
5
21
100
AcDbEntity
100
AcDbBlockEnd
0
BLOCK
5
1C
100
AcDbEntity
100
AcDbBlockBegin
2
*PAPER_SPACE
0
ENDBLK
5
1D
100
AcDbEntity
100
AcDbBlockEnd
0
ENDSEC
0
SECTION
2
ENTITIES
0
ELLIPSE
5
100
100
AcDbEntity
8
0
100
AcDbEllipse
10
-236.35999999999996
20
82.620604748657314
30
0
11
1.7245012624429893e-15
21
1.6517003101960017
31
0.0
40
0.99897056979071464
41
0
42
6.2831853071795862
0
LINE
5
101
100
AcDbEntity
8
0
100
AcDbLine
10
-65.237024985098756
20
118.33997322100059
30
-2.2204460492503131e-15
11
-65.23702498509877
21
121.29778167437166
31
-2.2204460492503131e-15
0
SPLINE
5
102
100
AcDbEntity
8
0
100
AcDbSpline
70
0
71
3
72
20
73
16
74
0
42
0.000000001
43
0.0000000001
44
0.0000000001
40
-0.32556110955288503
40
-0.32556110955288503
40
-0.32556110955288503
40
-0.32556110955288503
40
-0.28531762929777826
40
-0.28531762929777826
40
-0.28531762929777826
40
-0.24509723213797638
40
-0.24509723213797638
40
-0.24509723213797638
40
-0.16639826483496079
40
-0.16639826483496079
40
-0.16639826483496079
40
-0.084008059146985503
40
-0.084008059146985503
40
-0.084008059146985503
40
0
40
0
40
0
40
0
10
-65.237024985098742
20
121.29778167437161
30
0
10
-65.237024985098742
20
121.46092980059711
30
-2.2204460492503131e-15
10
-65.254957002766162
20
121.62309758803126
30
-2.2204460492503131e-15
10
-65.289080940138689
20
121.78160339413161
30
0
10
-65.323185213905802
20
121.94001786271757
30
-2.2204460492503131e-15
10
-65.373375854882354
20
122.09441851056465
30
-2.2204460492503131e-15
10
-65.437845161555174
20
122.24234502243506
30
-2.2204460492503131e-15
10
-65.563991798987246
20
122.53179178435252
30
-2.2204460492503131e-15
10
-65.744971971645114
20
122.79722584550511
30
-2.2204460492503131e-15
10
-65.969843614365246
20
123.01971011735421
30
-2.2204460492503131e-15
10
-66.204566703395656
20
123.25194124671057
30
-2.2204460492503131e-15
10
-66.465059785835052
20
123.4169994433114
30
-2.2204460492503131e-15
10
-66.742755476134462
20
123.52845132883077
30
-2.2204460492503131e-15
10
-67.026336586008114
20
123.64226530037287
30
-2.2204460492503131e-15
10
-67.33103966972547
20
123.7016595261091
30
-2.2204460492503131e-15
10
-67.637024999999895
20
123.7016595261091
30
-2.2204460492503131e-15
0
LINE
5
103
100
AcDbEntity
8
0
100
AcDbLine
10
-67.63702499999988
20
123.70165952610907
30
-2.2204460492503131e-15
11
-232.6929749999999
21
123.70165952610925
31
-2.2204460492503131e-15
0
SPLINE
5
104
100
AcDbEntity
8
0
100
AcDbSpline
70
0
71
3
72
20
73
16
74
0
42
0.000000001
43
0.0000000001
44
0.0000000001
40
-0.32270660571048765
40
-0.32270660571048765
40
-0.32270660571048765
40
-0.32270660571048765
40
-0.28350541732654166
40
-0.28350541732654166
40
-0.28350541732654166
40
-0.24434138170472997
40
-0.24434138170472997
40
-0.24434138170472997
40
-0.166609125055005
40
-0.166609125055005
40
-0.166609125055005
40
-0.084528211640972906
40
-0.084528211640972906
40
-0.084528211640972906
40
0
40
0
40
0
40
0
10
-232.6929749999999
20
123.70165952610924
30
-2.2204460492503131e-15
10
-232.8542933101395
20
123.70165952610924
30
-2.2204460492503131e-15
10
-233.01463077645764
20
123.6840325705071
30
-2.2204460492503131e-15
10
-233.17139711088262
20
123.65047733594052
30
-2.2204460492503131e-15
10
-233.32801450118649
20
123.61695398229367
30
-2.2204460492503131e-15
10
-233.48067901545795
20
123.5676261734875
30
-2.2204460492503131e-15
10
-233.62702315487905
20
123.50428875994312
30
-2.2204460492503131e-15
10
-233.91748505503958
20
123.3785775045275
30
-2.2204460492503131e-15
10
-234.18379029146908
20
123.19753653944012
30
-2.2204460492503131e-15
10
-234.40702550765184
20
122.97256506459098
30
-2.2204460492503131e-15
10
-234.64206106093044
20
122.73570147305182
30
-2.2204460492503131e-15
10
-234.80739990895393
20
122.47373557753811
30
-2.2204460492503131e-15
10
-234.91858468923479
20
122.19715795772368
30
-2.2204460492503131e-15
10
-235.03323298973893
20
121.91196466068143
30
-2.2204460492503131e-15
10
-235.09297501490107
20
121.60550418540737
30
0
10
-235.09297501490107
20
121.29778167437175
30
0
0
LINE
5
105
100
AcDbEntity
8
0
100
AcDbLine
10
-235.09297501490107
20
121.29778167437175
30
-1.635916092382589e-30
11
-235.0929750149011
21
118.3900988514321
31
-2.2204460492503131e-15
0
ARC
5
106
100
AcDbEntity
8
0
100
AcDbCircle
10
-239.89297501490111
20
118.39009885143211
30
-2.2204460492503131e-15
40
4.8000000000000078
210
-8.6301403259552648e-19
220
-8.6736175091315816e-20
230
1
100
AcDbArc
50
275.73917056307477
51
360
0
ARC
5
107
100
AcDbEntity
8
0
100
AcDbCircle
10
-238.89297499999995
20
108.44022448186358
30
0
40
5.199999999999946
210
-4.2700886198796965e-17
220
4.248684468162641e-16
230
1
100
AcDbArc
50
95.739170563073898
51
180
0
LINE
5
108
100
AcDbEntity
8
0
100
AcDbLine
10
-244.09297499999991
20
108.44022448186358
30
0
11
-244.09297499999991
21
108.06079661686361
31
0
0
SPLINE
5
109
100
AcDbEntity
8
0
100
AcDbSpline
70
0
71
3
72
14
73
10
74
0
42
0.000000001
43
0.0000000001
44
0.0000000001
40
0
40
0
40
0
40
0
40
0.19532223669347087
40
0.19532223669347087
40
0.19532223669347087
40
0.33718467446646583
40
0.33718467446646583
40
0.33718467446646583
40
0.47904711223947133
40
0.47904711223947133
40
0.47904711223947133
40
0.47904711223947133
10
-246.12407019749986
20
104.13993367680905
30
0
10
-245.6135157180199
20
104.50048612961947
30
0
10
-245.17826632916569
20
104.95731414735064
30
0
10
-244.84282091390912
20
105.48470425071628
30
0
10
-244.5991870852491
20
105.867747405389
30
-2.2204460492503131e-15
10
-244.41112001770256
20
106.28342343757183
30
0
10
-244.2842474308527
20
106.7192936562324
30
-2.2204460492503131e-15
10
-244.15737484400273
20
107.15516387489301
30
-2.2204460492503131e-15
10
-244.09297499999985
20
107.60683681598998
30
0
10
-244.09297499999991
20
108.0607966168636
30
-2.2204460492503131e-15
0
SPLINE
5
110
100
AcDbEntity
8
0
100
AcDbSpline
70
0
71
3
72
14
73
10
74
0
42
0.000000001
43
0.0000000001
44
0.0000000001
40
-0.14906077463309628
40
-0.14906077463309628
40
-0.14906077463309628
40
-0.14906077463309628
40
-0.13523380437621352
40
-0.13523380437621352
40
-0.13523380437621352
40
-0.084739222505211709
40
-0.084739222505211709
40
-0.084739222505211709
40
0
40
0
40
0
40
0
10
-246.12407019750003
20
104.13993367680914
30
0
10
-246.21822281953405
20
104.07344330178104
30
0
10
-246.30780790503465
20
104.00045796237745
30
0
10
-246.39189479940481
20
103.92151181413062
30
0
10
-246.69896921324064
20
103.63321073726139
30
0
10
-246.85505007344975
20
103.33719117725954
30
0
10
-246.93001132299912
20
103.16950982319111
30
0
10
-247.05581626619454
20
102.88809584796631
30
0
10
-247.12698777973802
20
102.58323287651612
30
0
10
-247.13836213843959
20
102.2750160732073
30
0
0
SPLINE
5
111
100
AcDbEntity
8
0
100
AcDbSpline
70
0
71
3
72
11
73
7
74
0
42
0.000000001
43
0.0000000001
44
0.0000000001
40
-0.0081437799632497563
40
-0.0081437799632497563
40
-0.0081437799632497563
40
-0.0081437799632497563
40
-0.0040718883733169764
40
-0.0040718883733169764
40
-0.0040718883733169764
40
0
40
0
40
0
40
0
10
-247.13836213843962
20
102.27501607320703
30
0
10
-247.13890804146448
20
102.26022346030838
30
0
10
-247.13931750787725
20
102.24542602504758
30
0
10
-247.13959050131703
20
102.23062607178447
30
0
10
-247.13986349454115
20
102.21582613021215
30
0
10
-247.14000001490106
20
102.20102367643192
30
0
10
-247.14000001490106
20
102.1862210145958
30
0
0
LINE
5
112
100
AcDbEntity
8
0
100
AcDbLine
10
-247.14000001490106
20
102.18622101459582
30
0
11
-247.14000001490109
21
46.37330082143027
31
0
0
SPLINE
5
113
100
AcDbEntity
8
0
100
AcDbSpline
70
0
71
3
72
20
73
16
74
0
42
0.000000001
43
0.0000000001
44
0.0000000001
40
-0.32459146273160805
40
-0.32459146273160805
40
-0.32459146273160805
40
-0.32459146273160805
40
-0.28468998071963014
40
-0.28468998071963014
40
-0.28468998071963014
40
-0.24481645113421679
40
-0.24481645113421679
40
-0.24481645113421679
40
-0.16641213766487445
40
-0.16641213766487445
40
-0.16641213766487445
40
-0.084135400324143295
40
-0.084135400324143295
40
-0.084135400324143295
40
0
40
0
40
0
40
0
10
-247.14000001490098
20
46.373300821430277
30
2.2204460492503131e-15
10
-247.14000001490098
20
46.210868414616833
30
0
10
-247.1221819659269
20
46.049416595539029
30
0
10
-247.0882712598152
20
45.891593888317118
30
0
10
-247.05438439608244
20
45.733882145130622
30
0
10
-247.00451671529575
20
45.58016167982575
30
0
10
-246.94047111423745
20
45.432859064540274
30
0
10
-246.81453665511341
20
45.143214266505574
30
-2.2204460492503131e-15
10
-246.63362695440381
20
44.877619701091035
30
0
10
-246.40883544228143
20
44.654994160457299
30
0
10
-246.17363551319926
20
44.422060492835413
30
-2.2204460492503131e-15
10
-245.91282873670485
20
44.256942014979579
30
-2.2204460492503131e-15
10
-245.63552365573548
20
44.145582791493354
30
0
10
-245.35154734339486
20
44.031544557789886
30
0
10
-245.04641094231437
20
43.972064217295667
30
-2.2204460492503131e-15
10
-244.73999999999992
20
43.972064217295667
30
-2.2204460492503131e-15
0
LINE
5
114
100
AcDbEntity
8
0
100
AcDbLine
10
-244.73999999999995
20
43.972064217295674
30
0
11
-155.18310775755563
21
43.97206421729561
31
-4.9303806576313238e-31
0
LINE
5
115
100
AcDbEntity
8
0
100
AcDbLine
10
-155.18310775755563
20
43.97206421729561
30
-4.9303806576313238e-31
11
-153.2961804618287
21
43.627560002548321
31
-2.2204460492503131e-15
0
ARC
5
116
100
AcDbEntity
8
0
100
AcDbCircle
10
-153.43986470345013
20
42.840568999607569
30
0
40
0.80000000000000182
210
4.9877211636020016e-18
220
4.8239906927602629e-18
230
1
100
AcDbArc
50
44.043979840015851
51
79.653229384406487
0
ARC
5
117
100
AcDbEntity
8
0
100
AcDbCircle
10
-155.16500000000096
20
41.172064217294704
30
0
40
3.2000000000013347
210
6.7268237165189928e-18
220
-3.8646026249769535e-18
230
1
100
AcDbArc
50
33.557309761923776
51
44.043979840015162
0
ARC
5
118
100
AcDbEntity
8
0
100
AcDbCircle
10
-150.16499999999996
20
44.488689007650962
30
-2.2204460492503131e-15
40
2.7999999999999843
210
6.5754280327502204e-16
220
4.3616455241234132e-16
230
1
100
AcDbArc
50
213.55730976192058
51
326.44269023807897
0
ARC
5
119
100
AcDbEntity
8
0
100
AcDbCircle
10
-145.16500000000082
20
41.172064217296281
30
0
40
3.1999999999988877
210
4.9877211636018213e-18
220
-4.8239906927604285e-18
230
1
100
AcDbArc
50
135.95602015998145
51
146.44269023808189
0
ARC
5
120
100
AcDbEntity
8
0
100
AcDbCircle
10
-146.89013529654977
20
42.840568999607555
30
0
40
0.8000000000000016
210
0
220
0
230
1
100
AcDbArc
50
100.34677061559161
51
135.95602015998199
0
LINE
5
121
100
AcDbEntity
8
0
100
AcDbLine
10
-147.03381953817117
20
43.6275600025483
30
0
11
-145.14689224244427
21
43.972064217295603
31
-2.2204460492503131e-15
0
LINE
5
122
100
AcDbEntity
8
0
100
AcDbLine
10
-145.14689224244427
20
43.972064217295603
30
-2.2204460492503131e-15
11
-55.589999999999975
21
43.972064217295525
31
-2.2204460492503131e-15
0
SPLINE
5
123
100
AcDbEntity
8
0
100
AcDbSpline
70
0
71
3
72
20
73
16
74
0
42
0.000000001
43
0.0000000001
44
0.0000000001
40
-0.32371859252228563
40
-0.32371859252228563
40
-0.32371859252228563
40
-0.32371859252228563
40
-0.28414252067250112
40
-0.28414252067250112
40
-0.28414252067250112
40
-0.24459890918101607
40
-0.24459890918101607
40
-0.24459890918101607
40
-0.16648859334326499
40
-0.16648859334326499
40
-0.16648859334326499
40
-0.084301293459766544
40
-0.084301293459766544
40
-0.084301293459766544
40
0
40
0
40
0
40
0
10
-55.589999999999975
20
43.972064217295511
30
-2.2204460492503131e-15
10
-55.428151402259054
20
43.972064217295511
30
-2.2204460492503131e-15
10
-55.267283546038833
20
43.989784916548331
30
2.2204460492503131e-15
10
-55.110015807522302
20
44.023514153801131
30
-2.2204460492503131e-15
10
-54.952877447361899
20
44.057215643257031
30
0
10
-54.799710914456298
20
44.106807993429264
30
0
10
-54.652913168984952
20
44.170492417574167
30
-2.2204460492503131e-15
10
-54.362944250351752
20
44.296287970794538
30
-2.2204460492503131e-15
10
-54.097071537791521
20
44.477217140962694
30
0
10
-53.874206248506525
20
44.702040597200067
30
0
10
-53.64039662927199
20
44.937904543831195
30
0
10
-53.475181807045601
20
45.199169874109266
30
0
10
-53.363895621791436
20
45.476148473852014
30
0
10
-53.249591261093514
20
45.76063896742312
30
0
10
-53.189999985098815
20
46.066335833361904
30
0
10
-53.189999985098815
20
46.373300821430128
30
0
0
LINE
5
124
100
AcDbEntity
8
0
100
AcDbLine
10
-53.189999985098822
20
46.373300821430128
30
1.0988810363097046e-30
11
-53.189999985098744
21
102.18622101459572
31
0
0
SPLINE
5
125
100
AcDbEntity
8
0
100
AcDbSpline
70
0
71
3
72
11
73
7
74
0
42
0.000000001
43
0.0000000001
44
0.0000000001
40
-0.0081437799643975864
40
-0.0081437799643975864
40
-0.0081437799643975864
40
-0.0081437799643975864
40
-0.00407189158986568
40
-0.00407189158986568
40
-0.00407189158986568
40
0
40
0
40
0
40
0
10
-53.189999985098737
20
102.18622101459573
30
-2.2204460492503131e-15
10
-53.189999985098737
20
102.20102367643149
30
-2.2204460492503131e-15
10
-53.190136505458625
20
102.2158261302114
30
0
10
-53.190409498682769
20
102.2306260717844
30
0
10
-53.190682492122463
20
102.24542602504373
30
0
10
-53.191091958535239
20
102.26022346030629
30
0
10
-53.191637861560196
20
102.27501607320724
30
-2.2204460492503131e-15
0
SPLINE
5
126
100
AcDbEntity
8
0
100
AcDbSpline
70
0
71
3
72
14
73
10
74
0
42
0.000000001
43
0.0000000001
44
0.0000000001
40
-0.20985622490070394
40
-0.20985622490070394
40
-0.20985622490070394
40
-0.20985622490070394
40
-0.1741942486503642
40
-0.1741942486503642
40
-0.1741942486503642
40
-0.13524977438874916
40
-0.13524977438874916
40
-0.13524977438874916
40
-0.1181309731662628
40
-0.1181309731662628
40
-0.1181309731662628
40
-0.1181309731662628
10
-53.191637861560189
20
102.27501607320718
30
0
10
-53.202502971488208
20
102.56943350257431
30
0
10
-53.271576296131336
20
102.85784977259091
30
0
10
-53.387788611994452
20
103.12542237113662
30
-2.2204460492503131e-15
10
-53.514697662470063
20
103.41762362504438
30
-2.2204460492503131e-15
10
-53.6977194531419
20
103.68504129771867
30
0
10
-53.924657509233931
20
103.90889781510155
30
0
10
-54.024383078990439
20
104.00726923470457
30
0
10
-54.124237665630439
20
104.08897139259037
30
0
10
-54.21941906315255
20
104.15668085503765
30
0
0
SPLINE
5
127
100
AcDbEntity
8
0
100
AcDbSpline
70
0
71
3
72
14
73
10
74
0
42
0.000000001
43
0.0000000001
44
0.0000000001
40
0
40
0
40
0
40
0
40
0.19532223669346319
40
0.19532223669346319
40
0.19532223669346319
40
0.33631925089452647
40
0.33631925089452647
40
0.33631925089452647
40
0.47731626509559089
40
0.47731626509559089
40
0.47731626509559089
40
0.47731626509559089
10
-56.237024999999889
20
108.06798284763973
30
0
10
-56.237024999999889
20
107.44295169022061
30
0
10
-56.114942516329684
20
106.82389617133475
30
0
10
-55.877649205921941
20
106.24566106985756
30
0
10
-55.706354586201357
20
105.82825123370824
30
-2.2204460492503131e-15
10
-55.477058827348806
20
105.43707055492908
30
0
10
-55.196540635467308
20
105.08368356863365
30
0
10
-54.91602244358581
20
104.73029658233826
30
-2.2204460492503131e-15
10
-54.587073664882915
20
104.41822035852783
30
0
10
-54.219419063152536
20
104.15668085503765
30
0
0
LINE
5
128
100
AcDbEntity
8
0
100
AcDbLine
10
-56.237024999999889
20
108.06798284763973
30
0
11
-56.237024999999875
21
108.39009885143199
31
2.1684043449710089e-18
0
ARC
5
129
100
AcDbEntity
8
0
100
AcDbCircle
10
-61.437024999999885
20
108.39009885143197
30
-2.2204460492503131e-15
40
5.2000000000000046
210
-4.2742585646063117e-16
220
-1.4601170066545215e-30
230
1
100
AcDbArc
50
0
51
84.260829436925775
0
ARC
5
130
100
AcDbEntity
8
0
100
AcDbCircle
10
-60.437024985098738
20
118.33997322100061
30
0
40
4.8000000000000131
210
-4.6259292692714731e-16
220
6.9388939039055182e-18
230
1
100
AcDbArc
50
180
51
264.26082943692592
0
CIRCLE
5
131
100
AcDbEntity
8
0
100
AcDbCircle
10
-61.437024999999885
20
108.39009885143197
30
-2.2204460492503131e-15
40
1.4999999999999982
210
0
220
0
230
1
0
CIRCLE
5
132
100
AcDbEntity
8
0
100
AcDbCircle
10
-150.16499999999996
20
43.172064217295599
30
0
40
1.483375209644624
210
0
220
0
230
1
0
CIRCLE
5
133
100
AcDbEntity
8
0
100
AcDbCircle
10
-238.89297499999998
20
108.39009885143207
30
0
40
1.4999999999999964
210
0
220
0
230
1
0
ENDSEC
0
SECTION
2
OBJECTS
0
DICTIONARY
5
C
100
AcDbDictionary
3
ACAD_GROUP
350
D
3
ACAD_MLINESTYLE
350
17
0
DICTIONARY
5
D
100
AcDbDictionary
0
DICTIONARY
5
1A
330
C
100
AcDbDictionary
0
DICTIONARY
5
17
100
AcDbDictionary
0
ENDSEC
0
EOF
